<svg width="30" height="30" viewBox="0 0 30 30" fill="none" xmlns="http://www.w3.org/2000/svg">
<path d="M29.7083 12.0623H28.5V12H15V18H23.4773C22.2405 21.4928 18.9172 24 15 24C10.0297 24 6 19.9702 6 15C6 10.0297 10.0297 6 15 6C17.2943 6 19.3815 6.8655 20.9708 8.27925L25.2135 4.0365C22.5345 1.53975 18.951 0 15 0C6.71625 0 0 6.71625 0 15C0 23.2838 6.71625 30 15 30C23.2838 30 30 23.2838 30 15C30 13.9943 29.8965 13.0125 29.7083 12.0623Z" fill="#FFC107"/>
<path d="M1.72951 8.01825L6.65776 11.6325C7.99126 8.331 11.2208 6 15 6C17.2943 6 19.3815 6.8655 20.9708 8.27925L25.2135 4.0365C22.5345 1.53975 18.951 0 15 0C9.23851 0 4.24201 3.25275 1.72951 8.01825Z" fill="#FF3D00"/>
<path d="M15 30C18.8745 30 22.395 28.5172 25.0568 26.106L20.4143 22.1775C18.9083 23.3182 17.0363 24 15 24C11.0985 24 7.78576 21.5122 6.53776 18.0405L1.64626 21.8092C4.12876 26.667 9.17026 30 15 30Z" fill="#4CAF50"/>
<path d="M29.7083 12.0623H28.5V12H15V18H23.4773C22.8833 19.6778 21.804 21.1245 20.412 22.1783C20.4127 22.1775 20.4135 22.1775 20.4142 22.1768L25.0568 26.1053C24.7283 26.4038 30 22.5 30 15C30 13.9943 29.8965 13.0125 29.7083 12.0623Z" fill="#1976D2"/>
</svg>
