<svg width="31" height="30" viewBox="0 0 31 30" fill="none" xmlns="http://www.w3.org/2000/svg">
<path d="M25.5 5H5.5C4.125 5 3.0125 6.125 3.0125 7.5L3 22.5C3 23.875 4.125 25 5.5 25H25.5C26.875 25 28 23.875 28 22.5V7.5C28 6.125 26.875 5 25.5 5ZM25 10.3125L16.1625 15.8375C15.7625 16.0875 15.2375 16.0875 14.8375 15.8375L6 10.3125C5.6875 10.1125 5.5 9.775 5.5 9.4125C5.5 8.575 6.4125 8.075 7.125 8.5125L15.5 13.75L23.875 8.5125C24.5875 8.075 25.5 8.575 25.5 9.4125C25.5 9.775 25.3125 10.1125 25 10.3125Z" fill="black"/>
</svg>
